<?xml version="1.0" encoding="UTF-8"?>
<svg version="1.1" xmlns="http://www.w3.org/2000/svg" width="127" height="190">
<path d="M0 0 C0.82843918 -0.0049649 1.65687836 -0.00992981 2.51042175 -0.01504517 C5.23620448 -0.02958595 7.96192909 -0.03645406 10.68774414 -0.04199219 C12.59054057 -0.04774882 14.493337 -0.05350649 16.39613342 -0.05926514 C20.37965158 -0.06975108 24.36314969 -0.07560996 28.34667969 -0.07910156 C33.44201347 -0.08459146 38.53708075 -0.10864026 43.63233089 -0.13707352 C47.56064117 -0.15572495 51.48888743 -0.16090676 55.41723824 -0.16243744 C57.2954511 -0.16545712 59.17366302 -0.17346249 61.0518322 -0.18662262 C63.68189543 -0.20374109 66.3113094 -0.2017892 68.94140625 -0.1953125 C70.09576172 -0.20913467 70.09576172 -0.20913467 71.2734375 -0.22323608 C77.40760803 -0.17608787 82.05625121 1.17002824 86.94451904 5.09599304 C89.48045153 9.98195611 89.05725398 14.78142772 88.98950195 20.20336914 C88.99008606 21.42329559 88.99067017 22.64322205 88.99127197 23.90011597 C88.98896583 27.23688069 88.96893379 30.5726504 88.94097614 33.90923905 C88.91593778 37.39923551 88.91361859 40.88924582 88.90887451 44.37931824 C88.89645181 50.98435703 88.86364003 57.58913039 88.82347655 64.1940524 C88.77434623 72.4532105 88.75247774 80.71241189 88.73071289 88.97167969 C88.69177603 103.70170407 88.61164473 118.4311494 88.53540039 133.16113281 C50.91540039 133.16113281 13.29540039 133.16113281 -25.46459961 133.16113281 C-25.54492695 102.29312233 -25.54492695 102.29312233 -25.56510735 87.07986164 C-25.57620346 78.84187334 -25.59030528 70.6039254 -25.61547852 62.3659668 C-25.63539513 55.84513916 -25.64831193 49.32434194 -25.6527766 42.80348474 C-25.65538692 39.34982401 -25.66153397 35.89625029 -25.67605972 32.44261742 C-25.69213298 28.58990201 -25.69258041 24.73727222 -25.69165039 20.88452148 C-25.69884094 19.73581573 -25.70603149 18.58710999 -25.71343994 17.40359497 C-25.71069061 16.35611588 -25.70794128 15.30863678 -25.70510864 14.22941589 C-25.70695223 13.31776263 -25.70879581 12.40610937 -25.71069527 11.46683025 C-25.46459961 9.16113281 -25.46459961 9.16113281 -23.46459961 6.16113281 C-21.51147461 4.80957031 -21.51147461 4.80957031 -19.21459961 3.53613281 C-18.46694336 3.11074219 -17.71928711 2.68535156 -16.94897461 2.24707031 C-11.5375752 -0.1182898 -5.81460712 0.008424 0 0 Z M17.28540039 11.09863281 C13.51958051 14.90327558 8.53540039 20.52545507 8.53540039 26.16113281 C10.38248092 27.59875874 10.38248092 27.59875874 12.78540039 29.09863281 C18.25458979 32.8068208 22.94729858 37.05484686 27.75024414 41.55957031 C30.93218927 44.5317659 34.20362665 47.35941398 37.53540039 50.16113281 C34.17518504 35.11922761 29.38202319 21.54491142 21.53540039 8.16113281 C19.68500544 8.16113281 18.55422653 9.88221471 17.28540039 11.09863281 Z M45.53540039 12.16113281 C38.77083936 19.92048223 39.2571994 29.94823118 39.41040039 39.72363281 C39.41942383 40.82771484 39.42844727 41.93179688 39.43774414 43.06933594 C39.46109911 45.76683452 39.49384985 48.46386359 39.53540039 51.16113281 C41.56248167 48.63297526 43.58255847 46.10081015 45.57836914 43.54785156 C52.05389001 35.39742366 58.44143815 27.59737528 68.53540039 24.16113281 C68.53540039 23.50113281 68.53540039 22.84113281 68.53540039 22.16113281 C66.30852063 20.8653841 64.07906864 19.57445973 61.84790039 18.28613281 C60.90914062 17.73892578 60.90914062 17.73892578 59.95141602 17.18066406 C53.1839716 13.27751233 53.1839716 13.27751233 45.53540039 12.16113281 Z M-14.46459961 39.16113281 C-18.38157661 47.0679608 -19.2121166 54.39997239 -19.46459961 63.16113281 C-18.90256836 62.99097656 -18.34053711 62.82082031 -17.76147461 62.64550781 C0.02462233 57.51700133 18.17161099 55.12900555 36.53540039 53.16113281 C23.53834014 42.9265077 1.80571544 38.09422691 -14.46459961 39.16113281 Z M41.53540039 52.16113281 C44.95717121 54.44231336 48.15983081 55.10047384 52.09790039 55.97363281 C62.94221784 58.55433968 70.97655877 62.98741774 79.53540039 70.16113281 C80.19540039 69.83113281 80.85540039 69.50113281 81.53540039 69.16113281 C82.7095617 61.15641571 82.79672564 53.14952605 81.53540039 45.16113281 C67.00846621 38.93530388 54.51815434 44.35586991 41.53540039 52.16113281 Z M30.68676758 60.62988281 C30.03869141 61.27957031 29.39061523 61.92925781 28.72290039 62.59863281 C28.05291016 63.27023438 27.38291992 63.94183594 26.69262695 64.63378906 C20.17939726 71.30392698 14.5680714 78.51165438 9.08618164 86.03710938 C7.51250413 88.19249261 5.91741367 90.33049557 4.31665039 92.46582031 C3.30552737 93.82206482 2.29508077 95.17881396 1.28540039 96.53613281 C0.81908203 97.16068359 0.35276367 97.78523438 -0.12768555 98.42871094 C-2.01552331 100.99822819 -3.44911276 103.11467225 -4.46459961 106.16113281 C2.30053644 110.85557132 8.47195485 114.32455628 16.53540039 116.16113281 C19.98415796 111.41052636 22.16667314 106.64617199 24.22290039 101.16113281 C24.55741211 100.27699707 24.89192383 99.39286133 25.23657227 98.48193359 C28.32805778 90.09990865 30.96638485 81.58933313 33.53540039 73.03613281 C33.73684662 72.36807617 33.93829285 71.70001953 34.14584351 71.01171875 C36.5759738 63.70854852 36.5759738 63.70854852 37.53540039 56.16113281 C34.32384129 56.16113281 32.90575164 58.46421123 30.68676758 60.62988281 Z M41.53540039 56.16113281 C42.25751524 60.70679587 43.81383935 64.86650653 45.44946289 69.14550781 C45.74219086 69.91936829 46.03491882 70.69322876 46.33651733 71.49053955 C46.9583988 73.13193428 47.58219299 74.77260542 48.20776367 76.41259766 C49.14073548 78.85955652 50.06710566 81.30893029 50.99243164 83.75878906 C54.98968013 94.30461921 59.18475855 104.75633487 63.53540039 115.16113281 C67.70401085 113.81015742 71.4836898 112.30110855 75.34790039 110.22363281 C76.3030957 109.71960938 77.25829102 109.21558594 78.24243164 108.69628906 C80.82792033 107.30422278 80.82792033 107.30422278 81.53540039 104.16113281 C72.44021729 86.95402964 57.00016116 69.14849521 42.53540039 56.16113281 C42.20540039 56.16113281 41.87540039 56.16113281 41.53540039 56.16113281 Z " fill="#0F5A02" transform="translate(33.464599609375,1.8388671875)"/>
<path d="M0 0 C37.62 0 75.24 0 114 0 C114 43 114 43 110 48 C107.22883005 49.80450617 105.11756873 50.25197419 101.83889771 50.26742554 C101.01748291 50.27595551 100.19606812 50.28448547 99.34976196 50.29327393 C98.45719696 50.29236755 97.56463196 50.29146118 96.64501953 50.29052734 C95.69822327 50.29724457 94.751427 50.30396179 93.77593994 50.31088257 C90.64484413 50.32988636 87.5139624 50.33378796 84.3828125 50.3359375 C82.20571809 50.3423637 80.02862456 50.34909193 77.85153198 50.35610962 C73.2869059 50.3680883 68.72235554 50.37178982 64.15771484 50.37060547 C58.31106943 50.37040223 52.46490986 50.39770675 46.61837959 50.43214989 C42.12134576 50.4543963 37.62442927 50.4584437 33.12734604 50.45738602 C30.9719869 50.45974528 28.81662469 50.46858708 26.66131973 50.48405075 C23.64512437 50.5036648 20.62998215 50.49789037 17.61376953 50.48583984 C16.28099472 50.50269836 16.28099472 50.50269836 14.92129517 50.51989746 C9.48866628 50.46479323 6.24008854 49.72857734 2 46 C-4.86375343 32.27249315 0 15.34781924 0 0 Z M39 6 C39.33 6.99 39.66 7.98 40 9 C40.08266486 10.91906917 40.10740663 12.84089474 40.09765625 14.76171875 C40.09443359 15.87998047 40.09121094 16.99824219 40.08789062 18.15039062 C40.07951172 19.31763672 40.07113281 20.48488281 40.0625 21.6875 C40.05798828 22.86634766 40.05347656 24.04519531 40.04882812 25.25976562 C40.03703273 28.17322789 40.0205727 31.08658863 40 34 C41.65 34 43.3 34 45 34 C44.67 27.4 44.34 20.8 44 14 C44.66 14 45.32 14 46 14 C46.26554687 14.58265625 46.53109375 15.1653125 46.8046875 15.765625 C48.03302996 18.06174228 49.40314939 19.80356018 51.125 21.75 C51.66382813 22.36359375 52.20265625 22.9771875 52.7578125 23.609375 C53.16773438 24.06828125 53.57765625 24.5271875 54 25 C58.33987125 20.78884683 58.33987125 20.78884683 62 16 C62 15.34 62 14.68 62 14 C62.66 14 63.32 14 64 14 C63.67 20.6 63.34 27.2 63 34 C64.65 34 66.3 34 68 34 C68.33 24.76 68.66 15.52 69 6 C63.37856253 7.12428749 62.20976258 8.66236729 59.1875 13.0625 C58.78080078 13.63033203 58.37410156 14.19816406 57.95507812 14.78320312 C56.95744838 16.17988477 55.97698467 17.58879991 55 19 C51.29929731 15.43057223 48.41594559 11.86371183 45.625 7.57421875 C44.05280757 5.71941632 44.05280757 5.71941632 41.3125 5.76953125 C40.549375 5.84558594 39.78625 5.92164063 39 6 Z M75 6 C75 15.24 75 24.48 75 34 C76.65 34 78.3 34 80 34 C80 24.76 80 15.52 80 6 C78.35 6 76.7 6 75 6 Z M87 6 C87 15.24 87 24.48 87 34 C88.65 34 90.3 34 92 34 C92 30.04 92 26.08 92 22 C92.55429688 22.69867188 93.10859375 23.39734375 93.6796875 24.1171875 C94.40414062 25.02726562 95.12859375 25.93734375 95.875 26.875 C96.95394531 28.23238281 96.95394531 28.23238281 98.0546875 29.6171875 C99.93560474 32.00265176 99.93560474 32.00265176 102 34 C104.10820797 33.6814823 104.10820797 33.6814823 106 33 C105.43410156 32.31292969 104.86820313 31.62585938 104.28515625 30.91796875 C103.55167969 30.01691406 102.81820312 29.11585938 102.0625 28.1875 C101.33160156 27.29417969 100.60070312 26.40085938 99.84765625 25.48046875 C98 23 98 23 97 20 C97.639375 19.690625 98.27875 19.38125 98.9375 19.0625 C100.93610821 18.1654837 100.93610821 18.1654837 102 17 C102.40226433 13.37962104 102.48470484 11.64050283 100.25 8.6875 C95.73925377 5.30444033 92.94487675 6 87 6 Z M21 7 C20.67725098 7.67579102 20.35450195 8.35158203 20.02197266 9.04785156 C18.55668798 12.11541265 17.09084994 15.18270899 15.625 18.25 C15.11710937 19.31347656 14.60921875 20.37695312 14.0859375 21.47265625 C13.35117187 23.00986328 13.35117187 23.00986328 12.6015625 24.578125 C11.92601318 25.99206543 11.92601318 25.99206543 11.23681641 27.43457031 C10.17683564 29.63320392 9.09870703 31.820524 8 34 C9.65 34 11.3 34 13 34 C13.99 31.36 14.98 28.72 16 26 C19.63 26 23.26 26 27 26 C27.99 28.64 28.98 31.28 30 34 C31.65 34 33.3 34 35 34 C32.89950422 28.63606272 30.45933579 23.4567652 28 18.25 C27.54882812 17.27933594 27.09765625 16.30867188 26.6328125 15.30859375 C26.19710937 14.38691406 25.76140625 13.46523437 25.3125 12.515625 C24.91675781 11.67290039 24.52101563 10.83017578 24.11328125 9.96191406 C23.15234423 7.84400558 23.15234423 7.84400558 21 7 Z " fill="#0F5903" transform="translate(8,136)"/>
<path d="M0 0 C0.82843918 -0.0049649 1.65687836 -0.00992981 2.51042175 -0.01504517 C5.23620448 -0.02958595 7.96192909 -0.03645406 10.68774414 -0.04199219 C12.59054057 -0.04774882 14.493337 -0.05350649 16.39613342 -0.05926514 C20.37965158 -0.06975108 24.36314969 -0.07560996 28.34667969 -0.07910156 C33.44201347 -0.08459146 38.53708075 -0.10864026 43.63233089 -0.13707352 C47.56064117 -0.15572495 51.48888743 -0.16090676 55.41723824 -0.16243744 C57.2954511 -0.16545712 59.17366302 -0.17346249 61.0518322 -0.18662262 C63.68189543 -0.20374109 66.3113094 -0.2017892 68.94140625 -0.1953125 C70.09576172 -0.20913467 70.09576172 -0.20913467 71.2734375 -0.22323608 C77.40760803 -0.17608787 82.05625121 1.17002824 86.94451904 5.09599304 C89.48045153 9.98195611 89.05725398 14.78142772 88.98950195 20.20336914 C88.99008606 21.42329559 88.99067017 22.64322205 88.99127197 23.90011597 C88.98896583 27.23688069 88.96893379 30.5726504 88.94097614 33.90923905 C88.91593778 37.39923551 88.91361859 40.88924582 88.90887451 44.37931824 C88.89645181 50.98435703 88.86364003 57.58913039 88.82347655 64.1940524 C88.77434623 72.4532105 88.75247774 80.71241189 88.73071289 88.97167969 C88.69177603 103.70170407 88.61164473 118.4311494 88.53540039 133.16113281 C50.91540039 133.16113281 13.29540039 133.16113281 -25.46459961 133.16113281 C-25.46459961 132.50113281 -25.46459961 131.84113281 -25.46459961 131.16113281 C11.82540039 131.16113281 49.11540039 131.16113281 87.53540039 131.16113281 C87.20540039 90.24113281 86.87540039 49.32113281 86.53540039 7.16113281 C85.87540039 7.16113281 85.21540039 7.16113281 84.53540039 7.16113281 C83.64525238 6.18518158 83.64525238 6.18518158 82.73712158 5.18951416 C80.03883941 2.70366571 78.91700857 2.67199099 75.30786133 2.70703125 C73.74669586 2.70748444 73.74669586 2.70748444 72.1539917 2.70794678 C71.03720032 2.72859192 69.92040894 2.74923706 68.76977539 2.77050781 C67.04697357 2.7789975 67.04697357 2.7789975 65.28936768 2.78765869 C61.62095465 2.8100495 57.95351822 2.8602534 54.28540039 2.91113281 C51.79843533 2.9311942 49.31145496 2.9494456 46.82446289 2.96582031 C40.7277755 3.00992326 34.63165772 3.07686332 28.53540039 3.16113281 C28.53540039 4.81113281 28.53540039 6.46113281 28.53540039 8.16113281 C27.21540039 8.16113281 25.89540039 8.16113281 24.53540039 8.16113281 C25.03040039 9.64613281 25.03040039 9.64613281 25.53540039 11.16113281 C26.19540039 11.49113281 26.85540039 11.82113281 27.53540039 12.16113281 C30.33257476 17.01024897 32.11713475 21.4892228 31.53540039 27.16113281 C34.64162348 26.5028976 34.64162348 26.5028976 35.63305664 24.16503906 C36.1106543 22.95654297 36.1106543 22.95654297 36.59790039 21.72363281 C37.72172994 18.91180226 38.37262109 17.32391211 40.53540039 15.16113281 C40.53540039 14.17113281 40.53540039 13.18113281 40.53540039 12.16113281 C41.19540039 12.16113281 41.85540039 12.16113281 42.53540039 12.16113281 C42.04040039 9.19113281 42.04040039 9.19113281 41.53540039 6.16113281 C42.52540039 6.65613281 42.52540039 6.65613281 43.53540039 7.16113281 C43.53540039 8.15113281 43.53540039 9.14113281 43.53540039 10.16113281 C44.60790039 10.07863281 45.68040039 9.99613281 46.78540039 9.91113281 C50.53540039 10.16113281 50.53540039 10.16113281 52.97290039 12.16113281 C53.74633789 13.15113281 53.74633789 13.15113281 54.53540039 14.16113281 C50.08040039 13.17113281 50.08040039 13.17113281 45.53540039 12.16113281 C41.04996151 21.13201058 40.38969404 28.61537512 40.47290039 38.53613281 C40.47741211 39.55835938 40.48192383 40.58058594 40.48657227 41.63378906 C40.49829739 44.14296476 40.51470863 46.65201771 40.53540039 49.16113281 C41.47899414 47.89269531 41.47899414 47.89269531 42.44165039 46.59863281 C55.88583162 28.70210635 55.88583162 28.70210635 65.53540039 24.16113281 C66.52540039 24.16113281 67.51540039 24.16113281 68.53540039 24.16113281 C68.53540039 23.50113281 68.53540039 22.84113281 68.53540039 22.16113281 C67.39071289 21.75894531 67.39071289 21.75894531 66.22290039 21.34863281 C63.66159155 20.2168917 62.33847101 19.2488988 60.53540039 17.16113281 C64.69585288 17.6339115 67.5217303 18.14746272 70.53540039 21.16113281 C71.14086914 23.26660156 71.14086914 23.26660156 71.53540039 25.16113281 C70.82512695 25.47566406 70.11485352 25.79019531 69.38305664 26.11425781 C68.0044043 26.75621094 68.0044043 26.75621094 66.59790039 27.41113281 C65.68137695 27.82878906 64.76485352 28.24644531 63.82055664 28.67675781 C61.40324383 29.94606225 61.40324383 29.94606225 60.65649414 32.20800781 C60.36648176 34.24138283 60.36648176 34.24138283 61.53540039 36.16113281 C60.54540039 36.16113281 59.55540039 36.16113281 58.53540039 36.16113281 C58.04040039 34.18113281 58.04040039 34.18113281 57.53540039 32.16113281 C57.53540039 33.48113281 57.53540039 34.80113281 57.53540039 36.16113281 C56.44227539 36.57363281 55.34915039 36.98613281 54.22290039 37.41113281 C51.03318069 38.77354345 49.24669128 40.04054354 47.53540039 43.16113281 C47.53540039 43.82113281 47.53540039 44.48113281 47.53540039 45.16113281 C51.42236511 44.63586731 55.04022288 43.72484222 58.78540039 42.59863281 C67.11693928 40.3037856 74.80010031 39.94187823 82.53540039 44.16113281 C83.71779244 48.59673612 83.66975622 53.02831179 83.66040039 57.59863281 C83.66426758 59.48388672 83.66426758 59.48388672 83.66821289 61.40722656 C83.53821219 65.08165825 83.25578068 68.55467198 82.53540039 72.16113281 C81.54540039 72.65613281 81.54540039 72.65613281 80.53540039 73.16113281 C79.87540039 72.83113281 79.21540039 72.50113281 78.53540039 72.16113281 C78.53540039 71.50113281 78.53540039 70.84113281 78.53540039 70.16113281 C77.87540039 69.83113281 77.21540039 69.50113281 76.53540039 69.16113281 C77.86873372 69.16113281 79.20206706 69.16113281 80.53540039 69.16113281 C81.12648672 61.14980198 81.67641272 53.1988356 81.53540039 45.16113281 C67.09585932 41.03554965 55.46127093 45.0416917 42.53540039 52.16113281 C42.53540039 53.15113281 42.53540039 54.14113281 42.53540039 55.16113281 C41.54540039 55.82113281 40.55540039 56.48113281 39.53540039 57.16113281 C38.54540039 56.50113281 37.55540039 55.84113281 36.53540039 55.16113281 C33.23237862 55.06258456 33.23237862 55.06258456 29.59790039 55.41113281 C28.37200195 55.49878906 27.14610352 55.58644531 25.88305664 55.67675781 C22.86707581 56.11314244 21.11810474 56.65888867 18.53540039 58.16113281 C17.54540039 58.49113281 16.55540039 58.82113281 15.53540039 59.16113281 C15.20540039 58.83113281 14.87540039 58.50113281 14.53540039 58.16113281 C12.5157584 58.08869228 10.49372916 58.07736093 8.47290039 58.09863281 C7.36817383 58.10765625 6.26344727 58.11667969 5.12524414 58.12597656 C3.84327148 58.14337891 3.84327148 58.14337891 2.53540039 58.16113281 C5.9672565 56.15062483 9.13076744 55.62540094 13.05102539 55.09082031 C14.30141602 54.91679688 15.55180664 54.74277344 16.84008789 54.56347656 C18.14204102 54.38945313 19.44399414 54.21542969 20.78540039 54.03613281 C22.11621862 53.85318578 23.44694906 53.6695989 24.77758789 53.48535156 C28.02938311 53.03764063 31.2819323 52.59649171 34.53540039 52.16113281 C18.60676572 45.19663193 2.96877656 40.30430502 -14.46459961 39.16113281 C-17.66527532 48.07873871 -19.75123559 57.78938989 -17.46459961 67.16113281 C-18.94959961 67.65613281 -18.94959961 67.65613281 -20.46459961 68.16113281 C-20.46459961 67.50113281 -20.46459961 66.84113281 -20.46459961 66.16113281 C-22.93959961 66.65613281 -22.93959961 66.65613281 -25.46459961 67.16113281 C-25.51092876 59.65071588 -25.54647175 52.14031375 -25.56822395 44.62978649 C-25.57866365 41.14238121 -25.5928261 37.65507365 -25.61547852 34.16772461 C-25.64135473 30.15900735 -25.65107084 26.15039284 -25.65991211 22.14160156 C-25.67023468 20.88840622 -25.68055725 19.63521088 -25.69119263 18.34403992 C-25.69134369 17.1830629 -25.69149475 16.02208588 -25.69165039 14.82592773 C-25.69609161 13.8022258 -25.70053284 12.77852386 -25.70510864 11.72380066 C-25.46459961 9.16113281 -25.46459961 9.16113281 -23.46459961 6.16113281 C-21.51147461 4.80957031 -21.51147461 4.80957031 -19.21459961 3.53613281 C-18.46694336 3.11074219 -17.71928711 2.68535156 -16.94897461 2.24707031 C-11.5375752 -0.1182898 -5.81460712 0.008424 0 0 Z M17.28540039 11.09863281 C13.51958051 14.90327558 8.53540039 20.52545507 8.53540039 26.16113281 C10.38248092 27.59875874 10.38248092 27.59875874 12.78540039 29.09863281 C18.25458979 32.8068208 22.94729858 37.05484686 27.75024414 41.55957031 C30.93218927 44.5317659 34.20362665 47.35941398 37.53540039 50.16113281 C34.17518504 35.11922761 29.38202319 21.54491142 21.53540039 8.16113281 C19.68500544 8.16113281 18.55422653 9.88221471 17.28540039 11.09863281 Z " fill="#16580C" transform="translate(33.464599609375,1.8388671875)"/>
<path d="M0 0 C37.62 0 75.24 0 114 0 C114 43 114 43 110 48 C107.22883005 49.80450617 105.11756873 50.25197419 101.83889771 50.26742554 C101.01748291 50.27595551 100.19606812 50.28448547 99.34976196 50.29327393 C98.45719696 50.29236755 97.56463196 50.29146118 96.64501953 50.29052734 C95.69822327 50.29724457 94.751427 50.30396179 93.77593994 50.31088257 C90.64484413 50.32988636 87.5139624 50.33378796 84.3828125 50.3359375 C82.20571809 50.3423637 80.02862456 50.34909193 77.85153198 50.35610962 C73.2869059 50.3680883 68.72235554 50.37178982 64.15771484 50.37060547 C58.31106943 50.37040223 52.46490986 50.39770675 46.61837959 50.43214989 C42.12134576 50.4543963 37.62442927 50.4584437 33.12734604 50.45738602 C30.9719869 50.45974528 28.81662469 50.46858708 26.66131973 50.48405075 C23.64512437 50.5036648 20.62998215 50.49789037 17.61376953 50.48583984 C16.28099472 50.50269836 16.28099472 50.50269836 14.92129517 50.51989746 C9.48866628 50.46479323 6.24008854 49.72857734 2 46 C-4.86375343 32.27249315 0 15.34781924 0 0 Z M17.2109375 1.21875 C16.26992188 1.26386719 15.32890625 1.30898437 14.359375 1.35546875 C12.88210937 1.42701172 12.88210937 1.42701172 11.375 1.5 C9.88613281 1.57154297 9.88613281 1.57154297 8.3671875 1.64453125 C5.91143757 1.76259615 3.45570981 1.88110393 1 2 C0.950533 7.48094366 0.9142486 12.96175713 0.89013672 18.44287109 C0.88008407 20.30715194 0.86643995 22.17141703 0.84912109 24.03564453 C0.82484047 26.71651091 0.81350953 29.39716866 0.8046875 32.078125 C0.79436493 32.91055725 0.78404236 33.7429895 0.77340698 34.60064697 C0.73121793 40.08237237 0.73121793 40.08237237 3 45 C3.66 45 4.32 45 5 45 C5 45.66 5 46.32 5 47 C7.80861761 48.58144093 9.82893623 49.25110874 13.04721069 49.26069641 C13.84338303 49.26778122 14.63955536 49.27486603 15.45985413 49.28216553 C16.32436691 49.27968811 17.1888797 49.27721069 18.07958984 49.2746582 C18.9971254 49.27976913 19.91466095 49.28488007 20.86000061 49.29014587 C23.89371257 49.30404797 26.92719747 49.30308449 29.9609375 49.30078125 C32.07077112 49.30466811 34.18060397 49.30900276 36.29043579 49.31376648 C40.71383195 49.32123022 45.13714829 49.32093647 49.56054688 49.31567383 C55.22551659 49.30988195 60.89015907 49.3268028 66.55507469 49.3500185 C70.91313585 49.36476055 75.27111831 49.36562684 79.62919998 49.36250877 C81.71756259 49.36302184 83.80592962 49.36825688 85.89426804 49.37832069 C88.81693434 49.3906754 91.73896475 49.38389879 94.66162109 49.37231445 C95.52208542 49.37995819 96.38254974 49.38760193 97.26908875 49.39547729 C102.24620387 49.35193711 105.69260665 48.77496899 110 46 C111.34410262 43.98264795 111.34410262 43.98264795 112 42 C112.33 41.67 112.66 41.34 113 41 C113.08868299 38.04294679 113.11520296 35.10934944 113.09765625 32.15234375 C113.0962413 31.2659169 113.09482635 30.37949005 113.09336853 29.46620178 C113.08775215 26.62326746 113.07519691 23.78041069 113.0625 20.9375 C113.05748711 19.01497509 113.05292384 17.09244896 113.04882812 15.16992188 C113.03777741 10.44658451 113.02050183 5.72330542 113 1 C112.31292969 1.08378906 111.62585938 1.16757813 110.91796875 1.25390625 C110.01691406 1.35574219 109.11585937 1.45757812 108.1875 1.5625 C107.29417969 1.66691406 106.40085937 1.77132812 105.48046875 1.87890625 C103 2 103 2 100 1 C97.71067322 0.87906505 95.41748676 0.82461674 93.125 0.8125 C91.30355469 0.79123047 91.30355469 0.79123047 89.4453125 0.76953125 C86.13529757 0.99094948 83.99801725 1.68001736 81 3 C78.8125 2.625 78.8125 2.625 77 2 C76.34 2 75.68 2 75 2 C73 2 71 2 69 2 C68.67 2.99 68.34 3.98 68 5 C68.99 5 69.98 5 71 5 C70.67 5.66 70.34 6.32 70 7 C68.35 6.67 66.7 6.34 65 6 C61.7 10.29 58.4 14.58 55 19 C51.16188757 15.16188757 48.50329634 11.99796398 45.625 7.57421875 C44.05280757 5.71941632 44.05280757 5.71941632 41.3125 5.76953125 C40.1678125 5.88361328 40.1678125 5.88361328 39 6 C39.495 7.485 39.495 7.485 40 9 C40.08266486 10.91906917 40.10740663 12.84089474 40.09765625 14.76171875 C40.09443359 15.87998047 40.09121094 16.99824219 40.08789062 18.15039062 C40.07532227 19.90125977 40.07532227 19.90125977 40.0625 21.6875 C40.05798828 22.86634766 40.05347656 24.04519531 40.04882812 25.25976562 C40.03703273 28.17322789 40.0205727 31.08658863 40 34 C40.99 34.33 41.98 34.66 43 35 C40.03 35.495 40.03 35.495 37 36 C37 36.99 37 37.98 37 39 C36.34 38.34 35.68 37.68 35 37 C35.495 36.01 35.495 36.01 36 35 C33.69 35 31.38 35 29 35 C28.855625 34.071875 28.71125 33.14375 28.5625 32.1875 C28.07899889 28.99274889 28.07899889 28.99274889 27 26 C27.99 28.64 28.98 31.28 30 34 C31.65 34 33.3 34 35 34 C32.91621241 28.66802525 30.46285323 23.53995507 28 18.375 C27.54882812 17.42109375 27.09765625 16.4671875 26.6328125 15.484375 C26.19710937 14.56914062 25.76140625 13.65390625 25.3125 12.7109375 C24.91675781 11.87868652 24.52101563 11.04643555 24.11328125 10.18896484 C22.95462333 7.80492718 22.95462333 7.80492718 21 5 C22.98 4.34 24.96 3.68 27 3 C23.32319313 0.54879542 21.48014789 1.01300492 17.2109375 1.21875 Z " fill="#115806" transform="translate(8,136)"/>
<path d="M0 0 C12.21 0 24.42 0 37 0 C36.67 0.66 36.34 1.32 36 2 C24.45 2 12.9 2 1 2 C1.1199311 7.48110629 1.24259844 12.96200782 1.37231445 18.44287109 C1.41560433 20.30709192 1.45728361 22.17135088 1.49731445 24.03564453 C1.55516113 26.7165882 1.61881405 29.397341 1.68359375 32.078125 C1.70030624 32.91055725 1.71701874 33.7429895 1.73423767 34.60064697 C1.75418289 35.38115417 1.77412811 36.16166138 1.79467773 36.96582031 C1.81022202 37.64976868 1.8257663 38.33371704 1.84178162 39.03839111 C2.00921816 41.11428773 2.44165028 42.99674745 3 45 C3.66 45 4.32 45 5 45 C5 45.66 5 46.32 5 47 C7.74770288 47.77257873 10.19602681 48.12813378 13.04721069 48.14044189 C13.84338303 48.14615204 14.63955536 48.15186218 15.45985413 48.15774536 C16.32436691 48.15886322 17.1888797 48.15998108 18.07958984 48.16113281 C19.45589317 48.16858017 19.45589317 48.16858017 20.86000061 48.17617798 C23.89365388 48.19077648 26.92725488 48.19759733 29.9609375 48.203125 C32.07077028 48.20887781 34.18060304 48.21463552 36.29043579 48.22039795 C40.71380863 48.23090097 45.13716332 48.2367484 49.56054688 48.24023438 C55.22549461 48.2457214 60.89020228 48.26975695 66.55507469 48.29820633 C70.91312357 48.31683802 75.27111464 48.32203857 79.62919998 48.32357025 C81.71756937 48.32659547 83.80593777 48.33461956 85.89426804 48.34775543 C88.81690463 48.36482882 91.73895473 48.36293256 94.66162109 48.35644531 C95.52208542 48.3656601 96.38254974 48.37487488 97.26908875 48.3843689 C102.2222474 48.3499657 105.75639672 47.85073259 110 45 C110.33 44.01 110.66 43.02 111 42 C111.33 41.01 111.66 40.02 112 39 C112.08518867 36.19573548 112.1158852 33.4170365 112.09765625 30.61328125 C112.0962413 29.79627243 112.09482635 28.97926361 112.09336853 28.13749695 C112.08777294 25.52912732 112.07522129 22.92084366 112.0625 20.3125 C112.05748443 18.54362103 112.05292162 16.77474072 112.04882812 15.00585938 C112.03780496 10.67053981 112.02054338 6.33528448 112 2 C108.7 2.33 105.4 2.66 102 3 C102 2.34 102 1.68 102 1 C101.071875 1.165 100.14375 1.33 99.1875 1.5 C94.14266379 2.23700282 89.08564289 2.08276815 84 2 C83.67 2.66 83.34 3.32 83 4 C80.83125748 3.49396008 79.00032373 3.00016187 77 2 C76.67 2.66 76.34 3.32 76 4 C74.35 3.67 72.7 3.34 71 3 C71 3.66 71 4.32 71 5 C70.67 5.99 70.34 6.98 70 8 C69.505 7.01 69.505 7.01 69 6 C64.75177626 6.47202486 62.80010291 8.96655518 60 12 C59.505 11.01 59.505 11.01 59 10 C59.66 9.67 60.32 9.34 61 9 C61.99 7.02 62.98 5.04 64 3 C57.73 2.67 51.46 2.34 45 2 C45.33 1.34 45.66 0.68 46 0 C68.44 0 90.88 0 114 0 C114.0825 6.991875 114.165 13.98375 114.25 21.1875 C114.28641602 23.38688232 114.32283203 25.58626465 114.36035156 27.85229492 C114.37203838 29.60334294 114.38223022 31.35440185 114.390625 33.10546875 C114.41108887 34.00833618 114.43155273 34.91120361 114.45263672 35.84143066 C114.45493677 39.99245447 114.37803524 42.36226059 112.22558594 45.9934082 C108.91894356 48.9746822 106.2979404 50.24641147 101.83889771 50.26742554 C101.01748291 50.27595551 100.19606812 50.28448547 99.34976196 50.29327393 C98.45719696 50.29236755 97.56463196 50.29146118 96.64501953 50.29052734 C95.69822327 50.29724457 94.751427 50.30396179 93.77593994 50.31088257 C90.64484413 50.32988636 87.5139624 50.33378796 84.3828125 50.3359375 C82.20571809 50.3423637 80.02862456 50.34909193 77.85153198 50.35610962 C73.2869059 50.3680883 68.72235554 50.37178982 64.15771484 50.37060547 C58.31106943 50.37040223 52.46490986 50.39770675 46.61837959 50.43214989 C42.12134576 50.4543963 37.62442927 50.4584437 33.12734604 50.45738602 C30.9719869 50.45974528 28.81662469 50.46858708 26.66131973 50.48405075 C23.64512437 50.5036648 20.62998215 50.49789037 17.61376953 50.48583984 C16.28099472 50.50269836 16.28099472 50.50269836 14.92129517 50.51989746 C9.48866628 50.46479323 6.24008854 49.72857734 2 46 C0.08367195 43.21079314 -0.24720485 41.03600467 -0.22705078 37.69042969 C-0.22689972 36.84986023 -0.22674866 36.00929077 -0.22659302 35.14324951 C-0.21627045 34.24519592 -0.20594788 33.34714233 -0.1953125 32.421875 C-0.1924826 31.4953009 -0.18965271 30.56872681 -0.18673706 29.61407471 C-0.17555611 26.65925091 -0.15045527 23.70473195 -0.125 20.75 C-0.11496751 18.74479605 -0.10584213 16.73958734 -0.09765625 14.734375 C-0.07732649 9.82270518 -0.03817378 4.9116932 0 0 Z " fill="#22561B" transform="translate(8,136)"/>
<path d="M0 0 C4.16045249 0.47277869 6.98632991 0.98632991 10 4 C10.60546875 6.10546875 10.60546875 6.10546875 11 8 C10.28972656 8.31453125 9.57945313 8.6290625 8.84765625 8.953125 C7.46900391 9.59507813 7.46900391 9.59507813 6.0625 10.25 C5.14597656 10.66765625 4.22945312 11.0853125 3.28515625 11.515625 C0.86784344 12.78492944 0.86784344 12.78492944 0.12109375 15.046875 C-0.16891863 17.08025002 -0.16891863 17.08025002 1 19 C0.01 19 -0.98 19 -2 19 C-2.495 17.02 -2.495 17.02 -3 15 C-3 16.32 -3 17.64 -3 19 C-4.093125 19.4125 -5.18625 19.825 -6.3125 20.25 C-9.5022197 21.61241064 -11.28870911 22.87941072 -13 26 C-13 26.66 -13 27.32 -13 28 C-9.11303528 27.4747345 -5.49517751 26.56370941 -1.75 25.4375 C6.58153889 23.14265279 14.26469992 22.78074541 22 27 C23.18239205 31.43560331 23.13435583 35.86717897 23.125 40.4375 C23.12886719 42.32275391 23.12886719 42.32275391 23.1328125 44.24609375 C23.0028118 47.92052544 22.72038029 51.39353917 22 55 C21.01 55.495 21.01 55.495 20 56 C19.34 55.67 18.68 55.34 18 55 C18 54.34 18 53.68 18 53 C17.34 52.67 16.68 52.34 16 52 C17.33333333 52 18.66666667 52 20 52 C20.59108633 43.98866917 21.14101233 36.03770278 21 28 C6.56045893 23.87441684 -5.07412946 27.88055889 -18 35 C-18 35.99 -18 36.98 -18 38 C-18.99 38.66 -19.98 39.32 -21 40 C-21.99 39.34 -22.98 38.68 -24 38 C-27.30302177 37.90145175 -27.30302177 37.90145175 -30.9375 38.25 C-32.16339844 38.33765625 -33.38929687 38.4253125 -34.65234375 38.515625 C-37.66832458 38.95200962 -39.41729565 39.49775586 -42 41 C-43.485 41.495 -43.485 41.495 -45 42 C-45.33 41.67 -45.66 41.34 -46 41 C-48.01964199 40.92755947 -50.04167124 40.91622812 -52.0625 40.9375 C-53.16722656 40.94652344 -54.27195313 40.95554688 -55.41015625 40.96484375 C-56.26480469 40.97644531 -57.11945312 40.98804688 -58 41 C-55.01355231 39.32927811 -52.46138423 38.6071084 -49.078125 38.1484375 C-48.13453125 38.01953125 -47.1909375 37.890625 -46.21875 37.7578125 C-45.2390625 37.63148437 -44.259375 37.50515625 -43.25 37.375 C-41.80367187 37.17390625 -41.80367187 37.17390625 -40.328125 36.96875 C-34.83244075 36.2369877 -29.54286716 35.85551768 -24 36 C-24.46429827 29.15160053 -26.05332983 23.2220793 -28.2578125 16.72265625 C-29 14 -29 14 -28 12 C-27.35089846 13.58199631 -26.70585306 15.16565724 -26.0625 16.75 C-25.70285156 17.63171875 -25.34320313 18.5134375 -24.97265625 19.421875 C-24.14643424 21.61186104 -23.50630057 23.71898271 -23 26 C-22.67 23.36 -22.34 20.72 -22 18 C-21.67 18 -21.34 18 -21 18 C-20.505 24.93 -20.505 24.93 -20 32 C-19.3709375 31.154375 -18.741875 30.30875 -18.09375 29.4375 C-4.64956877 11.54097354 -4.64956877 11.54097354 5 7 C5.99 7 6.98 7 8 7 C8 6.34 8 5.68 8 5 C7.236875 4.731875 6.47375 4.46375 5.6875 4.1875 C3.12619116 3.05575888 1.80307062 2.08776599 0 0 Z " fill="#175210" transform="translate(94,19)"/>
<path d="M0 0 C3.83225427 -0.08912219 7.26562152 0.12132271 11 1 C11.90816798 4.86207074 12.11643845 8.43148656 12.09765625 12.39453125 C12.09443359 13.59658203 12.09121094 14.79863281 12.08789062 16.03710938 C12.07951172 17.28298828 12.07113281 18.52886719 12.0625 19.8125 C12.05798828 21.07771484 12.05347656 22.34292969 12.04882812 23.64648438 C12.03706251 26.7643711 12.02062272 29.88216133 12 33 C10.329375 33.1546875 10.329375 33.1546875 8.625 33.3125 C7.42875 33.539375 6.2325 33.76625 5 34 C4.34 34.99 3.68 35.98 3 37 C3 36.01 3 35.02 3 34 C1.68 34.99 0.36 35.98 -1 37 C-2.32 36.34 -3.64 35.68 -5 35 C-5 34.34 -5 33.68 -5 33 C-5.66 33 -6.32 33 -7 33 C-7 27.39 -7 21.78 -7 16 C-7.66 16.33 -8.32 16.66 -9 17 C-8.34 15.35 -7.68 13.7 -7 12 C-6.34 12 -5.68 12 -5 12 C-5 18.27 -5 24.54 -5 31 C-3.68 31.33 -2.36 31.66 -1 32 C-1.01571045 31.22809326 -1.0314209 30.45618652 -1.04760742 29.66088867 C-1.10989607 26.16983338 -1.14897173 22.67889491 -1.1875 19.1875 C-1.21263672 17.97255859 -1.23777344 16.75761719 -1.26367188 15.50585938 C-1.27817383 13.76079102 -1.27817383 13.76079102 -1.29296875 11.98046875 C-1.31653442 10.37014771 -1.31653442 10.37014771 -1.34057617 8.72729492 C-1 6 -1 6 0.51831055 4.1262207 C1.00726807 3.75456787 1.49622559 3.38291504 2 3 C1.01 2.67 0.02 2.34 -1 2 C-0.67 1.34 -0.34 0.68 0 0 Z M6 4 C6 13.24 6 22.48 6 32 C7.65 32 9.3 32 11 32 C11 22.76 11 13.52 11 4 C9.35 4 7.7 4 6 4 Z " fill="#0F5605" transform="translate(77,138)"/>
<path d="M0 0 C1.32 0 2.64 0 4 0 C4.44802979 1.17804199 4.89605957 2.35608398 5.35766602 3.56982422 C7.05491165 8.03199377 8.75304441 12.49382531 10.45141602 16.95556641 C11.17983996 18.86953993 11.90803811 20.7835994 12.63598633 22.69775391 C17.37257458 35.15213709 22.15052869 47.58911258 27 60 C25.02 60.495 25.02 60.495 23 61 C22.67 59.68 22.34 58.36 22 57 C20.68 57 19.36 57 18 57 C17.61866701 55.0085944 17.28674418 53.00720923 17 51 C17.33 50.67 17.66 50.34 18 50 C18.26117166 45.47302456 18.08757624 42.05917602 16 38 C15.34 37.34 14.68 36.68 14 36 C14.33 35.01 14.66 34.02 15 33 C14.34 32.67 13.68 32.34 13 32 C12.25390625 29.99609375 12.25390625 29.99609375 11.5625 27.4375 C11.30339844 26.53644531 11.04429688 25.63539062 10.77734375 24.70703125 C10.52082031 23.81371094 10.26429687 22.92039062 10 22 C8.40575775 16.6342361 6.87289341 13.12364962 2 10 C1.34 9.67 0.68 9.34 0 9 C-1.11475966 11.22951932 -1.26727538 12.83980096 -1.5 15.3125 C-1.83336975 18.59328164 -2.27259124 21.77861836 -3 25 C-2.01 24.67 -1.02 24.34 0 24 C-0.33 25.65 -0.66 27.3 -1 29 C-1.99 29.33 -2.98 29.66 -4 30 C-4.99 29.01 -5.98 28.02 -7 27 C-7.33 28.98 -7.66 30.96 -8 33 C-9.55037383 29.03173014 -8.3930515 26.21391428 -7.12890625 22.265625 C-6.82713722 21.30858673 -6.82713722 21.30858673 -6.51927185 20.33221436 C-5.87657426 18.30162152 -5.21978046 16.27591382 -4.5625 14.25 C-4.12341068 12.87139224 -3.68524877 11.49248873 -3.24804688 10.11328125 C-2.17609185 6.73869338 -1.09145096 3.3683398 0 0 Z " fill="#175012" transform="translate(71,58)"/>
<path d="M0 0 C0.33 0 0.66 0 1 0 C1.33 10.56 1.66 21.12 2 32 C5.9714169 31.37158027 5.9714169 31.37158027 8 29 C8.66 29 9.32 29 10 29 C9.690625 30.216875 9.38125 31.43375 9.0625 32.6875 C7.38297806 40.25734531 6.12572438 48.39015915 8 56 C6.515 56.495 6.515 56.495 5 57 C5 56.34 5 55.68 5 55 C2.525 55.495 2.525 55.495 0 56 C0 37.52 0 19.04 0 0 Z " fill="#1A5611" transform="translate(8,13)"/>
<path d="M0 0 C11.75617604 2.04109483 23.92016121 4.57352141 32 14 C29.525 13.505 29.525 13.505 27 13 C26.67 12.01 26.34 11.02 26 10 C24.27650745 9.3577614 24.27650745 9.3577614 22 9 C19.6652039 8.33847444 17.33163378 7.67258667 15 7 C12.12579877 9.71604715 12.12579877 9.71604715 10 13 C10.61875 13.2475 11.2375 13.495 11.875 13.75 C14.39525827 15.23250486 15.01231659 16.28387064 16 19 C16 19.99 16 20.98 16 22 C15.5968457 21.56655273 15.19369141 21.13310547 14.77832031 20.68652344 C12.93630995 18.70697066 11.0931655 16.72847725 9.25 14.75 C8.29867187 13.72712891 8.29867187 13.72712891 7.328125 12.68359375 C4.26933564 9.40176767 1.20527982 6.14052669 -2 3 C-1 1 -1 1 0 0 Z " fill="#15570C" transform="translate(77,55)"/>
<path d="M0 0 C1.65 0 3.3 0 5 0 C5 9.9 5 19.8 5 30 C2.69 30.33 0.38 30.66 -2 31 C-2.99 32.485 -2.99 32.485 -4 34 C-4 33.01 -4 32.02 -4 31 C-5.98 32.485 -5.98 32.485 -8 34 C-9.32 33.34 -10.64 32.68 -12 32 C-12 31.34 -12 30.68 -12 30 C-12.66 30 -13.32 30 -14 30 C-14 24.39 -14 18.78 -14 13 C-14.99 13.495 -14.99 13.495 -16 14 C-15.34 12.35 -14.68 10.7 -14 9 C-13.34 9 -12.68 9 -12 9 C-12 15.27 -12 21.54 -12 28 C-10.68 28.33 -9.36 28.66 -8 29 C-8 22.4 -8 15.8 -8 9 C-7.67 9 -7.34 9 -7 9 C-7 15.27 -7 21.54 -7 28 C-5.35 28 -3.7 28 -2 28 C-1.67 26.68 -1.34 25.36 -1 24 C-1 25.65 -1 27.3 -1 29 C0.32 28.67 1.64 28.34 3 28 C3.0867562 23.70845978 3.1403089 19.41714332 3.1875 15.125 C3.21263672 13.90167969 3.23777344 12.67835938 3.26367188 11.41796875 C3.27333984 10.25136719 3.28300781 9.08476562 3.29296875 7.8828125 C3.3086792 6.80402832 3.32438965 5.72524414 3.34057617 4.61376953 C3.22818604 3.75122559 3.1157959 2.88868164 3 2 C2.01 1.34 1.02 0.68 0 0 Z " fill="#20541B" transform="translate(84,141)"/>
<path d="M0 0 C0.94875 0.33 1.8975 0.66 2.875 1 C4.22355769 8.23317308 4.22355769 8.23317308 2.625 11.75 C1.75875 12.86375 1.75875 12.86375 0.875 14 C0.318125 14.763125 -0.23875 15.52625 -0.8125 16.3125 C-1.245625 16.869375 -1.67875 17.42625 -2.125 18 C-2.455 16.68 -2.785 15.36 -3.125 14 C-2.465 13.62875 -1.805 13.2575 -1.125 12.875 C1.17769167 11.10654034 1.17769167 11.10654034 1.3125 8 C1.1302528 4.6575877 1.1302528 4.6575877 -2.125 2 C-5.755 1.34 -9.385 0.68 -13.125 0 C-13.125 9.24 -13.125 18.48 -13.125 28 C-11.805 27.67 -10.485 27.34 -9.125 27 C-9.125 23.04 -9.125 19.08 -9.125 15 C-6.625 17.3125 -6.625 17.3125 -4.125 20 C-4.125 20.99 -4.125 21.98 -4.125 23 C-4.785 23 -5.445 23 -6.125 23 C-6.455 24.98 -6.785 26.96 -7.125 29 C-9.435 29 -11.745 29 -14.125 29 C-15.45034346 26.34931308 -15.22107713 24.37036464 -15.1875 21.40625 C-15.17976563 20.29378906 -15.17203125 19.18132812 -15.1640625 18.03515625 C-15.13802083 15.67838542 -15.11197917 13.32161458 -15.0859375 10.96484375 C-15.07820313 9.85238281 -15.07046875 8.73992187 -15.0625 7.59375 C-15.05089844 6.56958984 -15.03929688 5.54542969 -15.02734375 4.49023438 C-14.95384982 1.9991158 -14.95384982 1.9991158 -16.125 0 C-11.44979446 -2.33760277 -4.89787981 -1.41227209 0 0 Z " fill="#255623" transform="translate(108.125,142)"/>
<path d="M0 0 C2 1 2 1 3.0703125 3.94140625 C3.41835937 5.13636719 3.76640625 6.33132812 4.125 7.5625 C4.65480469 9.35880859 4.65480469 9.35880859 5.1953125 11.19140625 C5.59363281 12.58166016 5.59363281 12.58166016 6 14 C6.33 11.36 6.66 8.72 7 6 C7.33 6 7.66 6 8 6 C8 11.28 8 16.56 8 22 C8.66 22 9.32 22 10 22 C10 22.66 10 23.32 10 24 C10.66 24 11.32 24 12 24 C11 26 11 26 8 28 C7.01 27.34 6.02 26.68 5 26 C1.69697823 25.90145175 1.69697823 25.90145175 -1.9375 26.25 C-3.77634766 26.38148437 -3.77634766 26.38148437 -5.65234375 26.515625 C-8.66832458 26.95200962 -10.41729565 27.49775586 -13 29 C-13.99 29.33 -14.98 29.66 -16 30 C-16.33 29.67 -16.66 29.34 -17 29 C-19.01964199 28.92755947 -21.04167124 28.91622812 -23.0625 28.9375 C-24.16722656 28.94652344 -25.27195313 28.95554687 -26.41015625 28.96484375 C-27.26480469 28.97644531 -28.11945312 28.98804687 -29 29 C-26.01355231 27.32927811 -23.46138423 26.6071084 -20.078125 26.1484375 C-19.13453125 26.01953125 -18.1909375 25.890625 -17.21875 25.7578125 C-16.2390625 25.63148437 -15.259375 25.50515625 -14.25 25.375 C-13.28578125 25.2409375 -12.3215625 25.106875 -11.328125 24.96875 C-5.83244075 24.2369877 -0.54286716 23.85551768 5 24 C4.53761832 17.17987019 2.97337325 11.21435634 0.83984375 4.72265625 C0 2 0 2 0 0 Z " fill="#2F5B2A" transform="translate(65,31)"/>
<path d="M0 0 C0.66 0 1.32 0 2 0 C3.43581474 1.61457079 4.80144783 3.29219075 6.125 5 C6.84945312 5.928125 7.57390625 6.85625 8.3203125 7.8125 C8.87460937 8.534375 9.42890625 9.25625 10 10 C11.65 8.68 13.3 7.36 15 6 C14.731875 6.515625 14.46375 7.03125 14.1875 7.5625 C12.67650593 10.66401415 11.34427274 13.82262806 10 17 C9.01 16.34 8.02 15.68 7 15 C6.34 15 5.68 15 5 15 C5 14.34 5 13.68 5 13 C4.34 13 3.68 13 3 13 C2.67 14.98 2.34 16.96 2 19 C-0.52775351 15.20836973 -0.22443035 12.19125969 -0.125 7.8125 C-0.11597656 7.06291016 -0.10695312 6.31332031 -0.09765625 5.54101562 C-0.07412578 3.69387346 -0.03825561 1.84689588 0 0 Z " fill="#0E5703" transform="translate(52,150)"/>
<path d="M0 0 C1.18239205 4.43560331 1.13435583 8.86717897 1.125 13.4375 C1.12886719 15.32275391 1.12886719 15.32275391 1.1328125 17.24609375 C1.0028118 20.92052544 0.72038029 24.39353917 0 28 C-0.99 28.495 -0.99 28.495 -2 29 C-2.66 28.67 -3.32 28.34 -4 28 C-4 27.34 -4 26.68 -4 26 C-4.66 25.67 -5.32 25.34 -6 25 C-4.66666667 25 -3.33333333 25 -2 25 C-1.40891367 16.98866917 -0.85898767 9.03770278 -1 1 C-12.70041571 -2.34297592 -22.3702141 -0.96056905 -33.2734375 4.69921875 C-34.17320313 5.12847656 -35.07296875 5.55773438 -36 6 C-36.66 5.67 -37.32 5.34 -38 5 C-25.96214553 -1.38006287 -13.06372968 -7.12567073 0 0 Z " fill="#2D5528" transform="translate(116,46)"/>
<path d="M0 0 C2.64 0 5.28 0 8 0 C8.33 1.32 8.66 2.64 9 4 C8.34 3.67 7.68 3.34 7 3 C7 2.34 7 1.68 7 1 C5.68 1.33 4.36 1.66 3 2 C3.33 2.66 3.66 3.32 4 4 C4.09629649 5.71662123 4.13075026 7.43693118 4.1328125 9.15625 C4.13410156 10.17847656 4.13539062 11.20070312 4.13671875 12.25390625 C4.13285156 13.32511719 4.12898438 14.39632812 4.125 15.5 C4.13080078 17.10681641 4.13080078 17.10681641 4.13671875 18.74609375 C4.13542969 19.76832031 4.13414063 20.79054687 4.1328125 21.84375 C4.13168457 22.78412109 4.13055664 23.72449219 4.12939453 24.69335938 C4 27 4 27 3 29 C4.98 29 6.96 29 9 29 C5.5647952 31.29013653 4.014669 31.17842973 0 31 C0 31.99 0 32.98 0 34 C-0.99 33.67 -1.98 33.34 -3 33 C-2 31 -2 31 -1 30 C-3.31 30 -5.62 30 -8 30 C-9.32 26.7 -10.64 23.4 -12 20 C-9 21 -9 21 -7.8125 23.375 C-7 26 -7 26 -7 29 C-3.04 28.505 -3.04 28.505 1 28 C2.42781477 23.71655569 2.18430901 19.61152757 2.1875 15.125 C2.19974609 14.22652344 2.21199219 13.32804688 2.22460938 12.40234375 C2.23472976 7.8346773 2.19070769 4.13896552 0 0 Z " fill="#275721" transform="translate(45,141)"/>
<path d="M0 0 C5 1 5 1 7 3 C7.55045872 8.17431193 7.55045872 8.17431193 5.75 10.875 C4 12 4 12 0 12 C0 8.04 0 4.08 0 0 Z " fill="#164C10" transform="translate(99,144)"/>
<path d="M0 0 C0.66 0.33 1.32 0.66 2 1 C2 1.99 2 2.98 2 4 C3.60875 3.87625 3.60875 3.87625 5.25 3.75 C9 4 9 4 11.4375 6 C12.2109375 6.99 12.2109375 6.99 13 8 C8.545 7.01 8.545 7.01 4 6 C1.2136356 11.57272879 -0.31282066 16.10512929 -1.125 22.3125 C-1.29257813 23.56675781 -1.46015625 24.82101563 -1.6328125 26.11328125 C-1.75398438 27.06589844 -1.87515625 28.01851562 -2 29 C-2.33 29 -2.66 29 -3 29 C-3.23741332 22.8008744 -2.83616691 17.18008322 -1.4375 11.12890625 C-0.89935104 8.87246755 -0.89935104 8.87246755 -1 6 C-0.34 6 0.32 6 1 6 C0.67 4.02 0.34 2.04 0 0 Z " fill="#1C5216" transform="translate(75,8)"/>
<path d="M0 0 C2 0 2 0 4.4375 2.3125 C5.283125 3.199375 6.12875 4.08625 7 5 C7.86625 5.7734375 7.86625 5.7734375 8.75 6.5625 C10.26500693 8.30475797 10.61186118 9.74879482 11 12 C11.66 12 12.32 12 13 12 C13 12.66 13 13.32 13 14 C13.66 14.33 14.32 14.66 15 15 C15.33 15.99 15.66 16.98 16 18 C14.02 18.99 14.02 18.99 12 20 C10 18 10 18 9.1328125 15.765625 C7.76642123 12.42974563 5.91516767 9.71884614 3.875 6.75 C0 1.09608541 0 1.09608541 0 0 Z " fill="#195313" transform="translate(104,90)"/>
<path d="M0 0 C0.66 0.33 1.32 0.66 2 1 C-4.33333333 7.33333333 -10.66666667 13.66666667 -17 20 C-16.71125 19.443125 -16.4225 18.88625 -16.125 18.3125 C-14.93354207 16.00566814 -14.93354207 16.00566814 -14.1875 13.4375 C-13 11 -13 11 -10.375 9.4375 C-9.59125 8.963125 -8.8075 8.48875 -8 8 C-8 6.68 -8 5.36 -8 4 C-7.05125 3.71125 -6.1025 3.4225 -5.125 3.125 C-1.94788422 2.23174891 -1.94788422 2.23174891 0 0 Z " fill="#1D531B" transform="translate(67,58)"/>
<path d="M0 0 C3.60561914 1.5299072 5.9859199 3.68696932 8.75 6.4375 C9.54921875 7.21996094 10.3484375 8.00242187 11.171875 8.80859375 C13 11 13 11 13 14 C11.02 13.34 9.04 12.68 7 12 C7 11.34 7 10.68 7 10 C6.01 9.67 5.02 9.34 4 9 C3.26919734 7.02253397 2.60578253 5.01927511 2 3 C1.34 2.01 0.68 1.02 0 0 Z " fill="#1A5613" transform="translate(57,40)"/>
<path d="M0 0 C0.66 0 1.32 0 2 0 C3.7143618 1.95927063 5.38405168 3.95880212 7 6 C6.67 6.66 6.34 7.32 6 8 C4.68 7.01 3.36 6.02 2 5 C2.165 5.515625 2.33 6.03125 2.5 6.5625 C3.16025316 9.78123414 3.17875792 12.72277139 3 16 C2.34 16.99 1.68 17.98 1 19 C-0.25433458 15.23699626 -0.10695422 11.72789091 -0.0625 7.8125 C-0.05798828 7.06291016 -0.05347656 6.31332031 -0.04882812 5.54101562 C-0.03706354 3.69397617 -0.01912865 1.84697787 0 0 Z " fill="#22521C" transform="translate(52,150)"/>
<path d="M0 0 C2.70679384 0.97745333 4.78634735 1.81973058 7 3.6875 C8.98950315 5.29810319 8.98950315 5.29810319 11.75 4.6875 C12.86375 4.3471875 12.86375 4.3471875 14 4 C12.35 6.31 10.7 8.62 9 11 C5.43279004 8.32459253 2.58873576 5.64340588 0 2 C0 1.34 0 0.68 0 0 Z " fill="#184816" transform="translate(54,145)"/>
<path d="M0 0 C2 1 2 1 3.125 3.375 C4 6 4 6 4 9 C1.69 9 -0.62 9 -3 9 C-2.44271087 5.65626525 -1.64826111 2.96687001 0 0 Z " fill="#274B27" transform="translate(29,149)"/>
<path d="M0 0 C0.33 0 0.66 0 1 0 C1.02726927 2.35424675 1.04696719 4.70816962 1.0625 7.0625 C1.07410156 8.37347656 1.08570312 9.68445313 1.09765625 11.03515625 C1.00502359 14.79604214 0.74686737 18.31263595 0 22 C-0.66 22.33 -1.32 22.66 -2 23 C-2.66 22.67 -3.32 22.34 -4 22 C-4 21.34 -4 20.68 -4 20 C-4.66 19.67 -5.32 19.34 -6 19 C-4.66666667 19 -3.33333333 19 -2 19 C-1.93941406 17.87980469 -1.87882812 16.75960937 -1.81640625 15.60546875 C-1.73198576 14.13280016 -1.64733851 12.66014456 -1.5625 11.1875 C-1.50352539 10.08051758 -1.50352539 10.08051758 -1.44335938 8.95117188 C-1.25618965 5.76928658 -1.01279207 3.03837622 0 0 Z " fill="#21541B" transform="translate(116,52)"/>
<path d="M0 0 C2.5 2.3125 2.5 2.3125 5 5 C5 5.99 5 6.98 5 8 C4.34 8 3.68 8 3 8 C2.67 9.65 2.34 11.3 2 13 C1.34 12.67 0.68 12.34 0 12 C0 8.04 0 4.08 0 0 Z " fill="#214F1A" transform="translate(99,157)"/>
<path d="M0 0 C0.99 0 1.98 0 3 0 C4.64826111 2.96687001 5.44271087 5.65626525 6 9 C5.01 9.33 4.02 9.66 3 10 C3 9.34 3 8.68 3 8 C2.01 8 1.02 8 0 8 C-0.79953138 4.71303767 -1.09658936 3.28976808 0 0 Z " fill="#125905" transform="translate(10,60)"/>
<path d="M0 0 C4.12759513 0.4690449 7.05286786 0.93951662 10 4 C10 5.32 10 6.64 10 8 C5.05 9.485 5.05 9.485 0 11 C3.08669204 7.91330796 3.91927658 7.55144911 8 7 C8 6.34 8 5.68 8 5 C6.8553125 4.5978125 6.8553125 4.5978125 5.6875 4.1875 C3.12619116 3.05575888 1.80307062 2.08776599 0 0 Z " fill="#20521B" transform="translate(94,19)"/>
<path d="M0 0 C0 4.2650016 -2.44473414 6.50032379 -5 9.6875 C-5.71542969 10.59725586 -5.71542969 10.59725586 -6.4453125 11.52539062 C-7.62376394 13.02202396 -8.81105188 14.51169173 -10 16 C-10.68707555 13.50935112 -11 11.62113708 -11 9 C-9.68 9 -8.36 9 -7 9 C-5.42621684 6.71126384 -5.42621684 6.71126384 -4 4 C-2.70420353 2.63015802 -1.38007251 1.2848951 0 0 Z " fill="#2E642D" transform="translate(48,79)"/>
<path d="M0 0 C1.93938819 2.90908228 2.96774957 5.40862379 4.125 8.6875 C4.47820312 9.68136719 4.83140625 10.67523438 5.1953125 11.69921875 C5.46085937 12.45847656 5.72640625 13.21773437 6 14 C4.0625 13.6875 4.0625 13.6875 2 13 C1.67 12.01 1.34 11.02 1 10 C0.01 9.67 -0.98 9.34 -2 9 C-1.01 8.34 -0.02 7.68 1 7 C0.67 4.69 0.34 2.38 0 0 Z " fill="#144E0E" transform="translate(92,105)"/>
<path d="M0 0 C7.93149255 0.79314925 13.7772908 4.12445215 19 10 C16.525 9.505 16.525 9.505 14 9 C13.67 8.01 13.34 7.02 13 6 C11.17525683 5.38672511 11.17525683 5.38672511 9 5 C7.40413879 4.34210358 5.82063893 3.65352657 4.25 2.9375 C3.45078125 2.57527344 2.6515625 2.21304688 1.828125 1.83984375 C1.22484375 1.56269531 0.6215625 1.28554688 0 1 C0 0.67 0 0.34 0 0 Z " fill="#1F501C" transform="translate(90,59)"/>
<path d="M0 0 C0 0.99 0 1.98 0 3 C-1.98 3.66 -3.96 4.32 -6 5 C-6 5.99 -6 6.98 -6 8 C-7.32 8 -8.64 8 -10 8 C-10 8.66 -10 9.32 -10 10 C-10.99 10 -11.98 10 -13 10 C-13 9.01 -13 8.02 -13 7 C-8.71 4.69 -4.42 2.38 0 0 Z " fill="#1B4F15" transform="translate(112,109)"/>
<path d="M0 0 C2.475 0.495 2.475 0.495 5 1 C4.01 1.495 4.01 1.495 3 2 C2.31527335 3.88764903 2.31527335 3.88764903 1.875 6.0625 C1.70742187 6.79597656 1.53984375 7.52945313 1.3671875 8.28515625 C1.24601562 8.85105469 1.12484375 9.41695312 1 10 C2.98 10.495 2.98 10.495 5 11 C3.35 11.33 1.7 11.66 0 12 C0 8.04 0 4.08 0 0 Z " fill="#1F4E20" transform="translate(99,144)"/>
<path d="M0 0 C1.32 0 2.64 0 4 0 C3.67 1.65 3.34 3.3 3 5 C2.01 5.33 1.02 5.66 0 6 C-0.99 5.01 -1.98 4.02 -3 3 C-3.33 4.98 -3.66 6.96 -4 9 C-4.93065133 6.39417629 -5.14917407 5.35801776 -4.0625 2.75 C-3.711875 2.1725 -3.36125 1.595 -3 1 C-2.01 1.33 -1.02 1.66 0 2 C0 1.34 0 0.68 0 0 Z " fill="#1A5B11" transform="translate(67,82)"/>
<path d="M0 0 C0 3.19610552 -0.54671542 4.41717626 -2 7.1875 C-2.37125 7.90292969 -2.7425 8.61835938 -3.125 9.35546875 C-3.558125 10.16951172 -3.558125 10.16951172 -4 11 C-4.99 10.34 -5.98 9.68 -7 9 C-6.34 8.01 -5.68 7.02 -5 6 C-5.66 4.68 -6.32 3.36 -7 2 C-5.515 2.99 -5.515 2.99 -4 4 C-2.68 2.68 -1.36 1.36 0 0 Z " fill="#195613" transform="translate(66,156)"/>
<path d="M0 0 C0.66 0 1.32 0 2 0 C2 4.29 2 8.58 2 13 C1.34 13 0.68 13 0 13 C-0.19397476 11.02145742 -0.38001321 9.0421352 -0.5625 7.0625 C-0.66691406 5.96035156 -0.77132812 4.85820312 -0.87890625 3.72265625 C-0.91886719 2.82417969 -0.95882812 1.92570313 -1 1 C-0.67 0.67 -0.34 0.34 0 0 Z " fill="#205121" transform="translate(82,150)"/>
<path d="M0 0 C0 3.7143695 -1.27231038 5.75194352 -3 9 C-3.33 9.66 -3.66 10.32 -4 11 C-5.5 9.625 -5.5 9.625 -7 8 C-7 7.34 -7 6.68 -7 6 C-6.34 6 -5.68 6 -5 6 C-5 5.34 -5 4.68 -5 4 C-4.01 4 -3.02 4 -2 4 C-1.34 2.68 -0.68 1.36 0 0 Z " fill="#1E5218" transform="translate(33,99)"/>
<path d="M0 0 C2.64 0 5.28 0 8 0 C7.67 0.99 7.34 1.98 7 3 C6.67 2.34 6.34 1.68 6 1 C1.75177626 1.47202486 -0.19989709 3.96655518 -3 7 C-3.33 6.34 -3.66 5.68 -4 5 C-3.34 4.67 -2.68 4.34 -2 4 C-0.86649466 1.98330173 -0.86649466 1.98330173 0 0 Z " fill="#255A1F" transform="translate(71,141)"/>
<path d="M0 0 C3.63396553 1.00943487 4.93391767 1.91605758 7.3125 4.9375 C9 8 9 8 9 11 C7.49703315 9.35687553 5.99769719 7.71042916 4.5 6.0625 C3.6646875 5.14597656 2.829375 4.22945313 1.96875 3.28515625 C0 1 0 1 0 0 Z " fill="#214F1E" transform="translate(84,66)"/>
<path d="M0 0 C0.928125 0.165 1.85625 0.33 2.8125 0.5 C5.95621353 1.07748388 5.95621353 1.07748388 9 1 C7.35 2.65 5.7 4.3 4 6 C0 1.125 0 1.125 0 0 Z " fill="#145110" transform="translate(59,149)"/>
<path d="M0 0 C1.0828125 0.2165625 1.0828125 0.2165625 2.1875 0.4375 C3.5796875 0.7159375 3.5796875 0.7159375 5 1 C6.66666667 1.33333333 8.33333333 1.66666667 10 2 C10 2.33 10 2.66 10 3 C6.04 3 2.08 3 -2 3 C-1.34 2.01 -0.68 1.02 0 0 Z " fill="#0E540D" transform="translate(21,37)"/>
<path d="M0 0 C0.93065133 2.60582371 1.14917407 3.64198224 0.0625 6.25 C-0.4634375 7.11625 -0.4634375 7.11625 -1 8 C-1.66 8 -2.32 8 -3 8 C-2.74438677 5.6568787 -2.40729228 3.32156597 -2 1 C-1.34 0.67 -0.68 0.34 0 0 Z " fill="#0F5304" transform="translate(74,58)"/>
<path d="M0 0 C5.56043956 1.45054945 5.56043956 1.45054945 7.5 3.875 C8 6 8 6 7.125 8.25 C6.75375 8.8275 6.3825 9.405 6 10 C6 8.02 6 6.04 6 4 C4.02 3.34 2.04 2.68 0 2 C0 1.34 0 0.68 0 0 Z " fill="#14530B" transform="translate(110,42)"/>
<path d="M0 0 C2 1.3125 2 1.3125 4 3 C4 3.99 4 4.98 4 6 C2.02 5.34 0.04 4.68 -2 4 C-1.34 2.68 -0.68 1.36 0 0 Z " fill="#1F4F1B" transform="translate(66,48)"/>
<path d="M0 0 C0.66 0.33 1.32 0.66 2 1 C1.34 1.66 0.68 2.32 0 3 C-0.64767793 5.57061311 -0.64767793 5.57061311 -1 8 C-2.32 8.33 -3.64 8.66 -5 9 C-3.90931332 5.22454612 -3.0916909 2.52956528 0 0 Z " fill="#15530F" transform="translate(92,30)"/>
<path d="M0 0 C0 0.99 0 1.98 0 3 C0.99 3.66 1.98 4.32 3 5 C-0.75 6.125 -0.75 6.125 -3 5 C-3 4.01 -3 3.02 -3 2 C-3.66 1.67 -4.32 1.34 -5 1 C-3.35 0.67 -1.7 0.34 0 0 Z " fill="#195F13" transform="translate(115,169)"/>
<path d="M0 0 C0.66 0 1.32 0 2 0 C3.7143618 1.95927063 5.38405168 3.95880212 7 6 C6.67 6.66 6.34 7.32 6 8 C5.566875 7.525625 5.13375 7.05125 4.6875 6.5625 C2.97690387 4.76313043 2.97690387 4.76313043 0 4 C0 2.68 0 1.36 0 0 Z " fill="#194216" transform="translate(52,150)"/>
<path d="M0 0 C2 2 2 2 2 6 C0.68 6 -0.64 6 -2 6 C-1.125 1.125 -1.125 1.125 0 0 Z " fill="#0C5D02" transform="translate(102,147)"/>
<path d="M0 0 C1.64350079 3.28700157 2.41321669 5.47930015 3 9 C2.01 9.33 1.02 9.66 0 10 C0 6.7 0 3.4 0 0 Z " fill="#185212" transform="translate(13,60)"/>
<path d="M0 0 C1.32 1.32 2.64 2.64 4 4 C3.34 4.66 2.68 5.32 2 6 C1.34 6 0.68 6 0 6 C-1.125 2.25 -1.125 2.25 0 0 Z " fill="#0C5902" transform="translate(102,163)"/>
<path d="M0 0 C0.66 0 1.32 0 2 0 C2.33 1.98 2.66 3.96 3 6 C1.68 5.67 0.36 5.34 -1 5 C-0.67 3.35 -0.34 1.7 0 0 Z " fill="#0D4B0B" transform="translate(29,151)"/>
<path d="M0 0 C0.7425 0.0825 1.485 0.165 2.25 0.25 C2.58 0.91 2.91 1.57 3.25 2.25 C-0.05 2.91 -3.35 3.57 -6.75 4.25 C-3.42692308 0.31153846 -3.42692308 0.31153846 0 0 Z " fill="#115512" transform="translate(94.75,41.75)"/>
</svg>
